<svg width="80" height="144" viewBox="0 0 80 144" fill="none" xmlns="http://www.w3.org/2000/svg">
<path d="M68 0C74.6274 0 80 5.37258 80 12V132C80 138.627 74.6274 144 68 144H6C6 140.686 3.31371 138 0 138V134C3.31371 134 6 131.314 6 128C6 124.686 3.31371 122 0 122V118C3.31371 118 6 115.314 6 112C6 108.686 3.31371 106 0 106V102C3.31371 102 6 99.3137 6 96C6 92.6863 3.31371 90 0 90V86C3.31371 86 6 83.3137 6 80C6 76.6863 3.31371 74 0 74V70C3.31371 70 6 67.3137 6 64C6 60.6863 3.31371 58 0 58V54C3.31371 54 6 51.3137 6 48C6 44.6863 3.31371 42 0 42V38C3.31371 38 6 35.3137 6 32C6 28.6863 3.31371 26 0 26V22C3.31371 22 6 19.3137 6 16C6 12.6863 3.31371 10 0 10V6C3.31371 6 6 3.31371 6 0H68Z" fill="#59A4BB"/>
</svg>
